<?xml version="1.0" encoding="UTF-8" standalone="no"?>
<!DOCTYPE svg PUBLIC "-//W3C//DTD SVG 1.1//EN" "http://www.w3.org/Graphics/SVG/1.1/DTD/svg11.dtd">
<svg width="100%" height="100%" viewBox="0 0 1200 100" version="1.1" xmlns="http://www.w3.org/2000/svg" xmlns:xlink="http://www.w3.org/1999/xlink" xml:space="preserve" xmlns:serif="http://www.serif.com/" style="fill-rule:evenodd;clip-rule:evenodd;stroke-linejoin:round;stroke-miterlimit:1.41421;">
    <g transform="matrix(1,0,0,1,-119.026,-0.724385)">
        <path d="M134.826,13.974L148.826,13.974C158.026,44.774 162.626,66.808 162.626,80.074L162.626,87.474L148.626,87.474L148.626,80.074C148.626,78.141 148.526,75.974 148.326,73.574L135.326,73.574C135.126,75.974 135.026,78.141 135.026,80.074L135.026,87.474L121.026,87.474L121.026,80.074C121.026,66.808 125.626,44.774 134.826,13.974ZM146.926,60.974C145.793,53.108 144.093,43.841 141.826,33.174C139.559,43.841 137.859,53.108 136.726,60.974L146.926,60.974Z" style="fill-rule:nonzero;"/>
        <path d="M173.126,13.974L187.126,13.974L187.126,74.874L213.426,74.874L213.426,87.474L173.126,87.474L173.126,13.974Z" style="fill-rule:nonzero;"/>
        <path d="M221.026,32.374L221.026,13.974L235.026,13.974C235.026,31.708 234.993,45.774 234.926,56.174C234.926,57.908 234.926,59.874 234.926,62.074L238.726,43.374L244.926,43.374L248.726,62.074C248.726,59.874 248.726,57.908 248.726,56.174C248.659,45.774 248.626,31.708 248.626,13.974L262.626,13.974L262.626,32.374C262.626,43.508 259.659,61.874 253.726,87.474L247.426,87.474L241.826,59.074L236.226,87.474L229.926,87.474C223.993,61.874 221.026,43.508 221.026,32.374Z" style="fill-rule:nonzero;"/>
        <path d="M284.826,13.974L298.826,13.974C308.026,44.774 312.626,66.808 312.626,80.074L312.626,87.474L298.626,87.474L298.626,80.074C298.626,78.141 298.526,75.974 298.326,73.574L285.326,73.574C285.126,75.974 285.026,78.141 285.026,80.074L285.026,87.474L271.026,87.474L271.026,80.074C271.026,66.808 275.626,44.774 284.826,13.974ZM296.926,60.974C295.793,53.108 294.093,43.841 291.826,33.174C289.559,43.841 287.859,53.108 286.726,60.974L296.926,60.974Z" style="fill-rule:nonzero;"/>
        <path d="M321.026,18.374L321.026,13.974L335.026,13.974L335.026,18.374C335.026,24.908 336.626,31.508 339.826,38.174L341.826,42.274L343.826,38.174C347.026,31.508 348.626,24.908 348.626,18.374L348.626,13.974L362.626,13.974L362.626,18.374C362.626,26.641 360.559,35.074 356.426,43.674L348.826,59.374L348.826,87.474L334.826,87.474L334.826,59.374L327.226,43.674C323.093,35.074 321.026,26.641 321.026,18.374Z" style="fill-rule:nonzero;"/>
        <path d="M384.226,69.274C384.159,69.408 384.159,69.508 384.226,69.574C384.159,70.574 384.393,71.541 384.926,72.474C385.459,73.408 386.193,74.141 387.126,74.674C388.326,75.341 389.759,75.674 391.426,75.674C393.026,75.674 394.359,75.341 395.426,74.674C396.426,74.141 397.193,73.408 397.726,72.474C398.393,71.408 398.693,70.208 398.626,68.874C398.626,67.208 398.159,65.508 397.226,63.774C395.693,61.174 392.159,58.141 386.626,54.674C380.226,50.608 375.959,46.741 373.826,43.074C371.959,39.741 371.026,36.308 371.026,32.774C371.026,29.108 371.926,25.741 373.726,22.674C375.259,19.874 377.459,17.641 380.326,15.974C383.593,14.108 387.559,13.174 392.226,13.174C397.093,13.174 401.193,14.141 404.526,16.074C407.193,17.608 409.326,19.741 410.926,22.474C412.193,24.674 412.926,27.008 413.126,29.474L399.426,32.174C399.493,32.041 399.493,31.941 399.426,31.874C399.493,30.874 399.259,29.908 398.726,28.974C398.193,28.041 397.459,27.308 396.526,26.774C395.326,26.108 393.893,25.774 392.226,25.774C390.626,25.774 389.293,26.108 388.226,26.774C387.226,27.308 386.459,28.041 385.926,28.974C385.259,30.041 384.959,31.241 385.026,32.574C385.026,34.241 385.493,35.941 386.426,37.674C387.959,40.274 391.493,43.308 397.026,46.774C403.426,50.841 407.693,54.708 409.826,58.374C411.693,61.708 412.626,65.141 412.626,68.674C412.626,72.341 411.726,75.708 409.926,78.774C408.393,81.574 406.193,83.808 403.326,85.474C400.059,87.341 396.093,88.274 391.426,88.274C386.559,88.274 382.459,87.308 379.126,85.374C376.459,83.841 374.326,81.708 372.726,78.974C371.459,76.774 370.726,74.441 370.526,71.974L384.226,69.274Z" style="fill-rule:nonzero;"/>
        <path d="M471.026,13.974L491.226,13.974C495.759,13.974 499.659,14.941 502.926,16.874C505.926,18.541 508.359,20.974 510.226,24.174C512.359,27.908 513.426,32.424 513.426,37.724C513.426,43.024 512.359,47.541 510.226,51.274C508.359,54.474 505.926,56.941 502.926,58.674L502.626,58.874C503.626,60.474 504.593,62.041 505.526,63.574C510.793,72.774 513.426,80.741 513.426,87.474L499.426,87.474C499.426,82.474 497.493,76.574 493.626,69.774C492.026,67.041 490.193,64.274 488.126,61.474L485.026,61.474L485.026,87.474L471.026,87.474L471.026,13.974ZM491.226,48.874C492.626,48.874 493.859,48.574 494.926,47.974C496.059,47.308 496.993,46.341 497.726,45.074C498.859,43.141 499.426,40.691 499.426,37.724C499.426,34.758 498.859,32.341 497.726,30.474C496.993,29.141 496.059,28.141 494.926,27.474C493.859,26.874 492.626,26.574 491.226,26.574L485.026,26.574L485.026,48.874L491.226,48.874Z" style="fill-rule:nonzero;"/>
        <path d="M523.126,13.974L562.626,13.974L562.626,26.574L537.126,26.574L537.126,41.474L556.326,41.474L556.326,54.074L537.126,54.074L537.126,74.874L562.626,74.874L562.626,87.474L523.126,87.474L523.126,13.974Z" style="fill-rule:nonzero;"/>
        <path d="M584.826,13.974L598.826,13.974C608.026,44.774 612.626,66.808 612.626,80.074L612.626,87.474L598.626,87.474L598.626,80.074C598.626,78.141 598.526,75.974 598.326,73.574L585.326,73.574C585.126,75.974 585.026,78.141 585.026,80.074L585.026,87.474L571.026,87.474L571.026,80.074C571.026,66.808 575.626,44.774 584.826,13.974ZM596.926,60.974C595.793,53.108 594.093,43.841 591.826,33.174C589.559,43.841 587.859,53.108 586.726,60.974L596.926,60.974Z" style="fill-rule:nonzero;"/>
        <path d="M621.026,13.974L638.926,13.974C643.593,13.974 647.659,14.974 651.126,16.974C654.459,18.908 657.193,21.708 659.326,25.374C662.059,30.108 663.426,35.974 663.426,42.974L663.426,58.474C663.426,65.474 662.059,71.341 659.326,76.074C657.193,79.741 654.459,82.541 651.126,84.474C647.659,86.474 643.593,87.474 638.926,87.474L621.026,87.474L621.026,13.974ZM638.926,74.874C640.526,74.874 641.959,74.508 643.226,73.774C644.693,72.974 645.926,71.708 646.926,69.974C648.593,67.041 649.426,63.208 649.426,58.474L649.426,42.974C649.426,38.241 648.593,34.408 646.926,31.474C645.926,29.741 644.693,28.474 643.226,27.674C641.959,26.941 640.526,26.574 638.926,26.574L635.026,26.574L635.026,74.874L638.926,74.874Z" style="fill-rule:nonzero;"/>
        <path d="M671.026,18.374L671.026,13.974L685.026,13.974L685.026,18.374C685.026,24.908 686.626,31.508 689.826,38.174L691.826,42.274L693.826,38.174C697.026,31.508 698.626,24.908 698.626,18.374L698.626,13.974L712.626,13.974L712.626,18.374C712.626,26.641 710.559,35.074 706.426,43.674L698.826,59.374L698.826,87.474L684.826,87.474L684.826,59.374L677.226,43.674C673.093,35.074 671.026,26.641 671.026,18.374Z" style="fill-rule:nonzero;"/>
        <path d="M771.626,34.474L779.826,34.474L779.826,13.974L793.826,13.974L793.826,34.474L806.626,34.474L806.626,47.074L793.826,47.074L793.826,65.374C793.826,69.841 794.659,72.941 796.326,74.674C797.059,75.341 797.859,75.674 798.726,75.674C799.726,75.674 800.593,75.308 801.326,74.574C802.659,73.241 803.526,71.008 803.926,67.874L817.126,71.974C816.593,74.708 815.693,77.208 814.426,79.474C812.759,82.341 810.609,84.524 807.976,86.024C805.343,87.524 802.259,88.274 798.726,88.274C795.193,88.274 792.109,87.508 789.476,85.974C786.843,84.441 784.726,82.274 783.126,79.474C780.926,75.674 779.826,70.974 779.826,65.374L779.826,47.074L771.626,47.074L771.626,34.474Z" style="fill-rule:nonzero;"/>
        <path d="M820.226,65.474L820.226,56.474C820.226,51.408 821.259,47.074 823.326,43.474C825.059,40.541 827.393,38.208 830.326,36.474C833.593,34.608 837.426,33.674 841.826,33.674C846.226,33.674 850.059,34.608 853.326,36.474C856.259,38.208 858.593,40.541 860.326,43.474C862.393,47.074 863.426,51.408 863.426,56.474L863.426,65.474C863.426,70.541 862.393,74.874 860.326,78.474C858.593,81.408 856.259,83.741 853.326,85.474C850.059,87.341 846.226,88.274 841.826,88.274C837.426,88.274 833.593,87.341 830.326,85.474C827.393,83.741 825.059,81.408 823.326,78.474C821.259,74.874 820.226,70.541 820.226,65.474ZM835.726,72.074C836.459,73.274 837.359,74.174 838.426,74.774C839.359,75.374 840.493,75.674 841.826,75.674C843.159,75.674 844.293,75.374 845.226,74.774C846.293,74.174 847.193,73.274 847.926,72.074C848.926,70.341 849.426,68.141 849.426,65.474L849.426,56.474C849.426,53.808 848.926,51.608 847.926,49.874C847.193,48.674 846.293,47.774 845.226,47.174C844.293,46.574 843.159,46.274 841.826,46.274C840.493,46.274 839.359,46.574 838.426,47.174C837.359,47.774 836.459,48.674 835.726,49.874C834.726,51.608 834.226,53.808 834.226,56.474L834.226,65.474C834.226,68.141 834.726,70.341 835.726,72.074Z" style="fill-rule:nonzero;"/>
        <path d="M923.126,13.974L962.626,13.974L962.626,26.574L937.126,26.574L937.126,41.474L956.326,41.474L956.326,54.074L937.126,54.074L937.126,87.474L923.126,87.474L923.126,13.974Z" style="fill-rule:nonzero;"/>
        <path d="M977.826,74.874L984.826,74.874L984.826,26.574L977.826,26.574L977.826,13.974L1005.83,13.974L1005.83,26.574L998.826,26.574L998.826,74.874L1005.83,74.874L1005.83,87.474L977.826,87.474L977.826,74.874Z" style="fill-rule:nonzero;"/>
        <path d="M1023.23,22.974C1024.96,20.041 1027.29,17.708 1030.23,15.974C1033.49,14.108 1037.39,13.174 1041.93,13.174C1046.53,13.174 1050.46,14.108 1053.73,15.974C1056.66,17.708 1058.99,20.074 1060.73,23.074C1061.86,25.074 1062.66,27.208 1063.13,29.474L1049.63,32.874C1049.43,31.608 1049.03,30.474 1048.43,29.474C1047.76,28.274 1046.86,27.341 1045.73,26.674C1044.66,26.074 1043.39,25.774 1041.93,25.774C1040.53,25.774 1039.33,26.074 1038.33,26.674C1037.19,27.274 1036.29,28.174 1035.63,29.374C1034.69,31.041 1034.23,33.074 1034.23,35.474L1034.23,65.974C1034.23,68.441 1034.69,70.474 1035.63,72.074C1036.29,73.274 1037.16,74.174 1038.23,74.774C1039.29,75.374 1040.46,75.674 1041.73,75.674C1042.93,75.674 1043.93,75.441 1044.73,74.974C1045.73,74.374 1046.53,73.541 1047.13,72.474C1048.13,70.808 1048.63,68.641 1048.63,65.974L1048.63,58.674L1041.83,58.674L1041.83,46.074L1062.63,46.074L1062.63,65.974C1062.63,70.974 1061.63,75.241 1059.63,78.774C1057.89,81.708 1055.59,84.008 1052.73,85.674C1049.73,87.408 1046.06,88.274 1041.73,88.274C1037.26,88.274 1033.43,87.341 1030.23,85.474C1027.29,83.808 1024.96,81.474 1023.23,78.474C1021.23,75.008 1020.23,70.841 1020.23,65.974L1020.23,35.474C1020.23,30.608 1021.23,26.441 1023.23,22.974Z" style="fill-rule:nonzero;"/>
        <path d="M1071.03,13.974L1085.03,13.974L1085.03,43.674L1098.63,43.674L1098.63,13.974L1112.63,13.974L1112.63,87.474L1098.63,87.474L1098.63,56.274L1085.03,56.274L1085.03,87.474L1071.03,87.474L1071.03,13.974Z" style="fill-rule:nonzero;"/>
        <path d="M1121.03,13.974L1162.63,13.974L1162.63,26.574L1148.83,26.574L1148.83,87.474L1134.83,87.474L1134.83,26.574L1121.03,26.574L1121.03,13.974Z" style="fill-rule:nonzero;"/>
        <path d="M1184.83,13.974L1198.83,13.974L1198.83,58.074L1184.83,58.074L1184.83,13.974ZM1182.03,78.474C1182.03,76.341 1182.46,74.541 1183.33,73.074C1184.06,71.808 1185.09,70.774 1186.43,69.974C1187.96,69.108 1189.76,68.674 1191.83,68.674C1193.89,68.674 1195.69,69.108 1197.23,69.974C1198.56,70.774 1199.59,71.808 1200.33,73.074C1201.19,74.541 1201.63,76.341 1201.63,78.474C1201.63,80.608 1201.19,82.408 1200.33,83.874C1199.59,85.141 1198.56,86.174 1197.23,86.974C1195.69,87.841 1193.89,88.274 1191.83,88.274C1189.76,88.274 1187.96,87.841 1186.43,86.974C1185.09,86.174 1184.06,85.141 1183.33,83.874C1182.46,82.408 1182.03,80.608 1182.03,78.474Z" style="fill-rule:nonzero;"/>
        <path d="M1234.83,13.974L1248.83,13.974L1248.83,58.074L1234.83,58.074L1234.83,13.974ZM1232.03,78.474C1232.03,76.341 1232.46,74.541 1233.33,73.074C1234.06,71.808 1235.09,70.774 1236.43,69.974C1237.96,69.108 1239.76,68.674 1241.83,68.674C1243.89,68.674 1245.69,69.108 1247.23,69.974C1248.56,70.774 1249.59,71.808 1250.33,73.074C1251.19,74.541 1251.63,76.341 1251.63,78.474C1251.63,80.608 1251.19,82.408 1250.33,83.874C1249.59,85.141 1248.56,86.174 1247.23,86.974C1245.69,87.841 1243.89,88.274 1241.83,88.274C1239.76,88.274 1237.96,87.841 1236.43,86.974C1235.09,86.174 1234.06,85.141 1233.33,83.874C1232.46,82.408 1232.03,80.608 1232.03,78.474Z" style="fill-rule:nonzero;"/>
    </g>
</svg>
